<?xml version="1.0" encoding="utf-8"?>
<!-- Generator: Adobe Illustrator 17.0.0, SVG Export Plug-In . SVG Version: 6.00 Build 0)  -->
<!DOCTYPE svg PUBLIC "-//W3C//DTD SVG 1.1//EN" "http://www.w3.org/Graphics/SVG/1.1/DTD/svg11.dtd">
<svg version="1.1" id="Layer_1" xmlns="http://www.w3.org/2000/svg" xmlns:xlink="http://www.w3.org/1999/xlink" x="0px" y="0px"
	 width="960px" height="560px" viewBox="0 0 960 560" enable-background="new 0 0 960 560" xml:space="preserve">
<path fill="#FFFFFF" d="M512.185,153.237h-70.332h-5.293h-7.563h-7.563h-7.562h-5.293h-2.269c0,2.647,0.378,5.293,0.756,7.563
	h105.498C512.185,158.531,512.185,155.884,512.185,153.237z"/>
<path fill="#FFFFFF" d="M410.091,126.768c4.537,0,9.075,7.563,10.966,18.906h7.563c-1.891-15.503-9.075-26.469-18.528-26.469
	c-10.966,0-18.906,14.747-18.906,34.031c0,2.647,0,5.293,0.378,7.563c1.891,15.503,9.075,26.469,18.528,26.469v-7.563
	c-4.537,0-9.075-7.563-10.966-18.906c-0.378-2.269-0.378-4.915-0.378-7.563C398.747,138.112,404.796,126.768,410.091,126.768z"/>
<path fill="#FFFFFF" d="M538.653,126.768c4.537,0,9.076,7.563,10.966,18.906h7.563c-1.891-15.503-9.075-26.469-18.528-26.469
	c-10.966,0-18.906,14.747-18.906,34.031c0,2.647,0,5.293,0.378,7.563c1.891,15.503,9.076,26.469,18.528,26.469v-7.563
	c-4.537,0-9.076-7.563-10.966-18.906c-0.378-2.269-0.378-4.915-0.378-7.563C527.31,138.112,533.36,126.768,538.653,126.768z"/>
<circle fill="#FFFFFF" cx="428.997" cy="262.894" r="11.344"/>
<circle fill="#FFFFFF" cx="512.185" cy="262.894" r="11.344"/>
<circle fill="#FFFFFF" cx="553.779" cy="262.894" r="11.344"/>
<circle fill="#FFFFFF" cx="470.591" cy="262.894" r="11.344"/>
<circle fill="#FFFFFF" cx="387.402" cy="304.488" r="11.344"/>
<circle fill="#FFFFFF" cx="428.997" cy="304.488" r="11.344"/>
<circle fill="#FFFFFF" cx="470.591" cy="304.488" r="11.344"/>
<circle fill="#FFFFFF" cx="387.402" cy="346.083" r="11.344"/>
<circle fill="#FFFFFF" cx="428.997" cy="346.083" r="11.344"/>
<circle fill="#FFFFFF" cx="470.591" cy="346.083" r="11.344"/>
<path fill="#FFFFFF" d="M353.371,399.02h149.361c-1.891-2.269-3.403-4.915-4.915-7.563H353.371c-4.159,0-7.563-3.403-7.563-7.563
	V217.519h249.565v76.76c2.647,1.512,5.293,3.025,7.563,4.915V168.362c0-8.319-6.806-15.125-15.125-15.125h-17.394h-5.293h-7.563
	h-7.563h-7.563h-5.293h-2.269c0,2.647,0.378,5.293,0.756,7.563h52.182c4.159,0,7.563,3.403,7.563,7.563v41.594H345.808v-41.594
	c0-4.159,3.403-7.563,7.563-7.563H384c-0.378-2.269-0.378-4.915-0.378-7.563h-30.25c-8.319,0-15.125,6.806-15.125,15.125v215.533
	C338.246,392.214,345.052,399.02,353.371,399.02z"/>
<path fill="#FFFFFF" d="M618.061,357.427c0-14.747-5.672-28.36-15.125-38.569c-2.269-2.647-4.915-4.915-7.563-6.806
	c-9.454-7.185-21.175-11.344-34.031-11.344c-31.385,0-56.719,25.335-56.719,56.719c0,12.857,4.159,24.579,11.344,34.031
	c1.891,2.647,4.159,5.293,6.806,7.563c10.21,9.454,23.444,15.125,38.569,15.125C592.726,414.145,618.061,388.811,618.061,357.427z
	 M525.798,391.458c-8.319-8.697-13.613-20.797-13.613-34.031c0-27.225,21.931-49.156,49.156-49.156
	c13.235,0,25.335,5.293,34.031,13.613c3.025,2.647,5.293,6.05,7.563,9.454c4.915,7.563,7.563,16.638,7.563,26.091
	c0,9.454-2.647,18.528-7.563,26.091c-3.781,6.428-9.076,11.722-15.503,15.503c-7.563,4.915-16.638,7.562-26.091,7.562
	c-9.454,0-18.528-2.647-26.091-7.562C531.848,396.751,528.823,394.483,525.798,391.458z"/>
<polygon fill="#FFFFFF" points="579.113,367.635 573.82,362.342 565.123,371.038 565.123,334.738 557.561,334.738 557.561,371.038 
	548.863,362.342 543.57,367.635 561.342,385.407 "/>
</svg>
