<?xml version="1.0" encoding="utf-8"?>
<!-- Generator: Adobe Illustrator 17.0.0, SVG Export Plug-In . SVG Version: 6.00 Build 0)  -->
<!DOCTYPE svg PUBLIC "-//W3C//DTD SVG 1.1//EN" "http://www.w3.org/Graphics/SVG/1.1/DTD/svg11.dtd">
<svg version="1.1" id="Layer_1" xmlns="http://www.w3.org/2000/svg" xmlns:xlink="http://www.w3.org/1999/xlink" x="0px" y="0px"
	 width="960px" height="560px" viewBox="0 0 960 560" enable-background="new 0 0 960 560" xml:space="preserve">
<title>Artboard 5</title>
<g>
	<path fill="#FFFFFF" d="M628.315,181.973l-27.333-27.333c-2.669-2.668-6.995-2.668-9.663,0l-82,82
		c-1.282,1.281-2.002,3.019-2.002,4.831v27.333c-0.002,3.772,3.054,6.831,6.825,6.833c0.003,0,0.005,0,0.008,0h27.333
		c1.812,0,3.55-0.72,4.831-2.002l82-82C630.984,188.967,630.984,184.641,628.315,181.973z M538.655,261.971h-17.671V244.3
		l75.167-75.166l17.67,17.671L538.655,261.971z"/>
	<path fill="#FFFFFF" d="M473.151,220.971h-68.333c-3.774,0-6.833,3.06-6.833,6.833c0,3.774,3.06,6.833,6.833,6.833h68.333
		c3.774,0,6.833-3.06,6.833-6.833S476.925,220.971,473.151,220.971z"/>
	<path fill="#FFFFFF" d="M404.818,275.637h68.333c3.774,0,6.833-3.06,6.833-6.833c0-3.774-3.06-6.833-6.833-6.833h-68.333
		c-3.774,0-6.833,3.06-6.833,6.833C397.984,272.578,401.044,275.637,404.818,275.637z"/>
	<path fill="#FFFFFF" d="M404.818,316.637h136.667c3.774,0,6.833-3.06,6.833-6.833s-3.06-6.833-6.833-6.833H404.818
		c-3.774,0-6.833,3.06-6.833,6.833S401.044,316.637,404.818,316.637z"/>
	<path fill="#FFFFFF" d="M582.484,275.637c-3.772-0.002-6.831,3.054-6.833,6.825c0,0.003,0,0.005,0,0.008v41
		c-0.012,11.317-9.183,20.488-20.5,20.5h-68.333c-1.477-0.001-2.916,0.479-4.097,1.367l-43.737,32.8v-27.333
		c0.002-3.772-3.054-6.831-6.825-6.833c-0.003,0-0.005,0-0.008,0h-41c-11.317-0.012-20.488-9.183-20.5-20.5V214.137
		c0.012-11.317,9.183-20.488,20.5-20.5h123c3.774,0,6.833-3.06,6.833-6.833c0-3.773-3.06-6.833-6.833-6.833h-123
		c-18.861,0.022-34.145,15.306-34.167,34.167v109.333c0.022,18.86,15.306,34.144,34.167,34.166h34.167v34.167
		c-0.003,3.772,3.053,6.832,6.825,6.835c1.48,0.001,2.921-0.479,4.105-1.368l52.845-39.633h66.058
		c18.861-0.022,34.145-15.306,34.167-34.167v-41c0.002-3.772-3.054-6.831-6.825-6.833
		C582.49,275.637,582.487,275.637,582.484,275.637z"/>
</g>
</svg>
