<?xml version="1.0" encoding="utf-8"?>
<!-- Generator: Adobe Illustrator 17.0.0, SVG Export Plug-In . SVG Version: 6.00 Build 0)  -->
<!DOCTYPE svg PUBLIC "-//W3C//DTD SVG 1.1//EN" "http://www.w3.org/Graphics/SVG/1.1/DTD/svg11.dtd">
<svg version="1.1" id="Layer_1" xmlns="http://www.w3.org/2000/svg" xmlns:xlink="http://www.w3.org/1999/xlink" x="0px" y="0px"
	 width="960px" height="560px" viewBox="0 0 960 560" enable-background="new 0 0 960 560" xml:space="preserve">
<g>
	<path fill="#FFFFFF" d="M362.751,140.75h233.466c10.666,0,18.962,8.296,18.962,18.962v146.953c0,0,24.887,79.402,29.628,93.623
		c1.185,3.555-4.741,5.926-9.481,5.926c-104.29,0-207.394,0-310.498,0c-5.926,0-11.851-2.37-10.666-5.926
		c4.741-14.222,30.813-93.623,30.813-93.623V159.712C344.974,149.046,353.27,140.75,362.751,140.75z M637.696,419.25H322.457
		c-8.296,0-8.296-7.11-8.296-13.036c2.37,1.185,7.11,2.37,10.666,2.37c103.104,0,206.209,0,310.498,0c3.555,0,7.11,0,10.666-2.37
		C645.992,412.14,644.806,419.25,637.696,419.25z M480.077,208.301c11.851,0,21.332,10.666,21.332,22.517
		s-9.481,21.332-21.332,21.332s-22.517-9.481-22.517-21.332S468.225,208.301,480.077,208.301z M480.077,255.705
		c21.332,0,39.109,17.777,40.294,39.109h-80.587C439.783,273.482,457.56,255.705,480.077,255.705z M446.893,378.956h66.366
		l7.11,20.147h-81.771L446.893,378.956z M608.068,298.369V159.712c0-7.11-4.741-11.851-11.851-11.851H362.751
		c-5.926,0-11.851,4.741-11.851,11.851V298.37C361.566,298.369,593.847,298.369,608.068,298.369z"/>
</g>
</svg>
