<?xml version="1.0" encoding="utf-8"?>
<!-- Generator: Adobe Illustrator 17.0.0, SVG Export Plug-In . SVG Version: 6.00 Build 0)  -->
<!DOCTYPE svg PUBLIC "-//W3C//DTD SVG 1.1//EN" "http://www.w3.org/Graphics/SVG/1.1/DTD/svg11.dtd">
<svg version="1.1" id="Layer_1" xmlns="http://www.w3.org/2000/svg" xmlns:xlink="http://www.w3.org/1999/xlink" x="0px" y="0px"
	 width="74.571px" height="43.5px" viewBox="885.429 0 74.571 43.5" enable-background="new 885.429 0 74.571 43.5"
	 xml:space="preserve">
<title>LinkedIn</title>
<path fill="#FFCC66" d="M930.326,30.41h-3.191v-5.047c0-1.204-0.024-2.752-1.663-2.752c-1.664,0-1.918,1.31-1.918,2.663v5.136
	h-3.191V20.031h3.065v1.415h0.041c0.428-0.816,1.47-1.677,3.026-1.677c3.233,0,3.831,2.148,3.831,4.944L930.326,30.41L930.326,30.41
	z M916.758,18.611c-1.027,0-1.852-0.839-1.852-1.871c0-1.031,0.826-1.87,1.852-1.87c1.024,0,1.853,0.838,1.853,1.87
	C918.612,17.772,917.781,18.611,916.758,18.611z M918.358,30.41h-3.2V20.031h3.2V30.41z M931.922,11.875h-18.366
	c-0.879,0-1.59,0.701-1.59,1.567v18.616c0,0.866,0.711,1.567,1.59,1.567h18.363c0.878,0,1.596-0.701,1.596-1.567V13.442
	c0-0.865-0.718-1.567-1.596-1.567H931.922z"/>
</svg>
